#!OML:ASF X:\für Bonn\!DataBase\2005_08_10_Bjorn_Final\c3d\bjorn.ASF
:FULLY-SPECIFIED
:DEGREES
421
root -1.23157 1.92149 20.4741 -429.398 -166.917 8.67522
lowerback 31.3902 8.10567 -2.21462
upperback 25.6869 1.23885 0.374188
thorax 12.163 -3.98438 0.423239
lowerneck 5.56851 -9.92703 -4.04141
upperneck 5.37356 -13.9608 5.98524
head 1.53102 -7.12887 2.55377
rclavicle -4.75095e-014 -4.13472e-014
rhumerus -166.22 -181.864 108.901
rradius 38.5177
rwrist -15.7486
rhand -4.60548 11.1097
rfingers 7.12502
rthumb 21.1724 -17.7542
lclavicle -4.75095e-014 -4.13472e-014
lhumerus -341.385 -26.4497 -291.906
lradius 41.1201
lwrist -7.06238
lhand -42.9502 -25.1868
lfingers 7.12502
lthumb -15.8104 4.18758
rfemur -258.654 -149.041 182.488
rtibia 116.382
rfoot 32.6197 11.9939
rtoes -8.20127
lfemur -74.1411 7.46939 -32.157
ltibia 107.571
lfoot 26.3042 8.87512
ltoes -6.12802
422
root -1.23187 1.91523 20.489 -429.468 -166.622 8.75089
lowerback 30.9653 8.11016 -2.52832
upperback 25.6595 1.30392 0.286415
thorax 12.2817 -3.94294 0.487716
lowerneck 5.44916 -10.0352 -3.93664
upperneck 5.71676 -14.1363 5.96368
head 1.66367 -7.2175 2.5087
rclavicle 1.73937e-015 0
rhumerus -166.181 -181.633 108.904
rradius 38.1421
rwrist -15.5114
rhand -4.75692 11.0698
rfingers 7.12502
rthumb 21.0269 -17.8103
lclavicle 1.73937e-015 0
lhumerus -341.3 -26.4657 -291.784
lradius 40.682
lwrist -7.36348
lhand -42.8392 -25.118
lfingers 7.12502
lthumb -15.7035 4.26481
rfemur -258.412 -148.922 182.036
rtibia 116.198
rfoot 32.8872 12.0917
rtoes -7.86364
lfemur -73.9357 7.31677 -32.3705
ltibia 107.302
lfoot 26.4145 9.04751
ltoes -6.561
423
root -1.23131 1.90979 20.5028 -429.531 -166.364 8.80848
lowerback 30.5319 8.11761 -2.83387
upperback 25.6229 1.38007 0.194736
thorax 12.3947 -3.89353 0.543356
lowerneck 5.42719 -10.1291 -3.87593
upperneck 5.98006 -14.296 5.99409
head 1.76092 -7.30101 2.49601
rclavicle -4.3012e-014 -6.36111e-015
rhumerus -166.188 -181.385 108.892
rradius 37.7928
rwrist -15.2948
rhand -4.87813 11.0552
rfingers 7.12502
rthumb 20.9105 -17.8377
lclavicle -4.3012e-014 -6.36111e-015
lhumerus -341.253 -26.4487 -291.658
lradius 40.2467
lwrist -7.7068
lhand -42.7236 -25.0897
lfingers 7.12502
lthumb -15.5922 4.30182
rfemur -258.201 -148.844 181.637
rtibia 116.036
rfoot 33.1117 12.2543
rtoes -7.66059
lfemur -73.7434 7.20111 -32.5647
ltibia 107.049
lfoot 26.5157 9.1745
ltoes -7.33623
424
root -1.23113 1.90404 20.5169 -429.614 -166.13 8.89656
lowerback 30.1379 8.11248 -3.10845
upperback 25.572 1.44687 0.113349
thorax 12.4779 -3.84476 0.598069
lowerneck 5.38379 -10.2195 -3.77309
upperneck 6.28127 -14.4503 5.97458
head 1.86642 -7.38108 2.45799
rclavicle -1.62506e-014 -2.54444e-014
rhumerus -166.196 -181.091 108.85
rradius 37.3969
rwrist -15.039
rhand -4.97042 11.0636
rfingers 7.12502
rthumb 20.8218 -17.8392
lclavicle -1.62506e-014 -2.54444e-014
lhumerus -341.241 -26.4448 -291.517
lradius 39.8265
lwrist -7.99511
lhand -42.6444 -25.1227
lfingers 7.12502
lthumb -15.5158 4.27474
rfemur -257.931 -148.74 181.253
rtibia 115.881
rfoot 33.3515 12.3315
rtoes -7.40603
lfemur -73.5434 7.07943 -32.7234
ltibia 106.813
lfoot 26.632 9.3172
ltoes -8.06316
425
root -1.23157 1.89765 20.5286 -429.71 -165.897 8.99763
lowerback 29.7201 8.10863 -3.36076
upperback 25.5539 1.51109 0.0435795
thorax 12.6146 -3.80322 0.650666
lowerneck 5.27096 -10.3155 -3.69513
upperneck 6.61542 -14.6145 5.96191
head 1.99811 -7.46447 2.42055
rclavicle 2.37641e-014 -3.81667e-014
rhumerus -166.158 -180.713 108.804
rradius 36.9701
rwrist -14.6608
rhand -5.03974 11.1013
rfingers 7.12502
rthumb 20.7552 -17.8088
lclavicle 2.37641e-014 -3.81667e-014
lhumerus -341.177 -26.4371 -291.403
lradius 39.4424
lwrist -8.28935
lhand -42.5251 -25.0851
lfingers 7.12502
lthumb -15.401 4.32118
rfemur -257.629 -148.604 180.869
rtibia 115.742
rfoot 33.5958 12.4222
rtoes -7.28144
lfemur -73.3369 6.9664 -32.9007
ltibia 106.59
lfoot 26.7759 9.39909
ltoes -8.74345
426
root -1.23222 1.89254 20.5395 -429.825 -165.663 9.08515
lowerback 29.3457 8.10184 -3.66614
upperback 25.5118 1.56129 -0.0150807
thorax 12.7031 -3.77628 0.748881
lowerneck 5.26198 -10.3884 -3.70179
upperneck 6.8863 -14.7518 5.97704
head 2.09948 -7.53835 2.41444
rclavicle -3.57564e-014 -1.90833e-014
rhumerus -166.135 -180.419 108.814
rradius 36.5256
rwrist -14.3774
rhand -5.04449 11.1527
rfingers 7.12502
rthumb 20.7507 -17.7578
lclavicle -3.57564e-014 -1.90833e-014
lhumerus -341.207 -26.3575 -291.226
lradius 39.075
lwrist -8.56315
lhand -42.4133 -25.0628
lfingers 7.12502
lthumb -15.2933 4.3518
rfemur -257.279 -148.438 180.463
rtibia 115.615
rfoot 33.8288 12.5318
rtoes -7.22749
lfemur -73.1064 6.86119 -33.0874
ltibia 106.383
lfoot 26.9031 9.50301
ltoes -9.39776
427
root -1.23202 1.88614 20.549 -429.952 -165.463 9.20011
lowerback 28.9769 8.08766 -3.89215
upperback 25.4747 1.61757 -0.0877821
thorax 12.8014 -3.73457 0.788922
lowerneck 5.25942 -10.4693 -3.63735
upperneck 7.14345 -14.8982 5.99431
head 2.19035 -7.61603 2.39798
rclavicle -2.84262e-014 -2.8625e-014
rhumerus -166.133 -179.992 108.732
rradius 36.0636
rwrist -14.0321
rhand -5.0199 11.202
rfingers 7.12502
rthumb 20.7743 -17.7059
lclavicle -2.84262e-014 -2.8625e-014
lhumerus -341.202 -26.4057 -291.181
lradius 38.7758
lwrist -8.66058
lhand -42.2621 -25.0571
lfingers 7.12502
lthumb -15.1476 4.3685
rfemur -256.906 -148.278 180.097
rtibia 115.5
rfoot 34.0913 12.512
rtoes -7.08631
lfemur -72.8918 6.77303 -33.2298
ltibia 106.196
lfoot 26.993 9.67223
ltoes -9.80035
428
root -1.23249 1.88018 20.5587 -430.114 -165.281 9.3207
lowerback 28.6558 8.06876 -4.119
upperback 25.4288 1.66077 -0.148168
thorax 12.8703 -3.70278 0.845975
lowerneck 5.28854 -10.5497 -3.61
upperneck 7.39459 -15.0443 5.98809
head 2.27497 -7.69501 2.38201
rclavicle -1.49089e-016 8.90555e-014
rhumerus -166.163 -179.659 108.708
rradius 35.647
rwrist -13.7664
rhand -5.00422 11.2205
rfingers 7.12502
rthumb 20.7894 -17.6858
lclavicle -1.49089e-016 8.90555e-014
lhumerus -341.251 -26.4053 -291.103
lradius 38.4845
lwrist -8.78947
lhand -42.1217 -25.0956
lfingers 7.12502
lthumb -15.0124 4.34019
rfemur -256.475 -148.113 179.725
rtibia 115.39
rfoot 34.3434 12.4982
rtoes -7.20494
lfemur -72.6304 6.68919 -33.3547
ltibia 106.015
lfoot 27.0216 9.97244
ltoes -9.72519
429
root -1.23311 1.87441 20.566 -430.263 -165.106 9.44212
lowerback 28.3129 8.05096 -4.36708
upperback 25.3847 1.70455 -0.194395
thorax 12.9506 -3.67555 0.929883
lowerneck 5.29471 -10.6275 -3.56732
upperneck 7.65927 -15.1833 5.93952
head 2.36254 -7.76959 2.34823
rclavicle -1.38155e-014 -5.08889e-014
rhumerus -166.195 -179.315 108.705
rradius 35.25
rwrist -13.4852
rhand -4.94199 11.2226
rfingers 7.12502
rthumb 20.8491 -17.6772
lclavicle -1.38155e-014 -5.08889e-014
lhumerus -341.307 -26.3535 -290.971
lradius 38.1923
lwrist -8.96157
lhand -41.9932 -25.0659
lfingers 7.12502
lthumb -14.8886 4.37911
rfemur -256.04 -147.929 179.372
rtibia 115.287
rfoot 34.5841 12.4616
rtoes -7.26185
lfemur -72.407 6.61923 -33.4871
ltibia 105.865
lfoot 26.9684 10.4086
ltoes -9.28398
430
root -1.23294 1.86855 20.5741 -430.434 -164.942 9.59111
lowerback 27.9786 8.02626 -4.57361
upperback 25.3481 1.74482 -0.242558
thorax 13.0401 -3.64596 0.989857
lowerneck 5.3315 -10.7035 -3.55967
upperneck 7.9012 -15.3297 5.97339
head 2.44893 -7.84977 2.34867
rclavicle 2.0276e-014 -6.04305e-014
rhumerus -166.238 -178.92 108.677
rradius 34.8452
rwrist -13.2029
rhand -4.87998 11.2078
rfingers 7.12502
rthumb 20.9087 -17.6854
lclavicle 2.0276e-014 -6.04305e-014
lhumerus -341.319 -26.4093 -290.955
lradius 37.9187
lwrist -9.04386
lhand -41.9316 -25.0362
lfingers 7.12502
lthumb -14.8292 4.4132
rfemur -255.577 -147.739 179.029
rtibia 115.191
rfoot 34.8005 12.5214
rtoes -7.57953
lfemur -72.1617 6.54886 -33.5934
ltibia 105.712
lfoot 26.9977 10.6373
ltoes -9.10813
431
root -1.23358 1.86247 20.5822 -430.625 -164.822 9.73592
lowerback 27.6913 7.9971 -4.75189
upperback 25.2898 1.78299 -0.282506
thorax 13.0845 -3.61202 1.04665
lowerneck 5.37812 -10.7685 -3.58492
upperneck 8.17713 -15.4676 5.99562
head 2.54682 -7.92749 2.35028
rclavicle -1.67973e-014 -2.54444e-014
rhumerus -166.323 -178.604 108.713
rradius 34.4482
rwrist -12.9031
rhand -4.87116 11.2302
rfingers 7.12502
rthumb 20.9172 -17.6621
lclavicle -1.67973e-014 -2.54444e-014
lhumerus -341.411 -26.4073 -290.863
lradius 37.6764
lwrist -9.14142
lhand -41.822 -25.0713
lfingers 7.12502
lthumb -14.7236 4.38587
rfemur -255.077 -147.594 178.726
rtibia 115.084
rfoot 34.9835 12.5655
rtoes -7.95705
lfemur -71.9032 6.5057 -33.6659
ltibia 105.568
lfoot 26.999 10.8463
ltoes -8.90091
432
root -1.23432 1.8568 20.5919 -430.817 -164.685 9.88009
lowerback 27.4099 7.97629 -4.9376
upperback 25.2262 1.83328 -0.335134
thorax 13.1201 -3.57053 1.09254
lowerneck 5.46969 -10.8512 -3.49872
upperneck 8.41285 -15.6175 5.95348
head 2.60805 -8.01032 2.3173
rclavicle -8.15017e-015 -2.22639e-014
rhumerus -166.467 -178.208 108.694
rradius 34.0796
rwrist -12.5438
rhand -4.85618 11.2873
rfingers 7.12502
rthumb 20.9316 -17.6034
lclavicle -8.15017e-015 -2.22639e-014
lhumerus -341.496 -26.4649 -290.824
lradius 37.441
lwrist -9.22224
lhand -41.7339 -25.0431
lfingers 7.12502
lthumb -14.6388 4.42018
rfemur -254.566 -147.44 178.382
rtibia 114.982
rfoot 35.2476 12.5526
rtoes -7.77178
lfemur -71.624 6.44139 -33.7548
ltibia 105.411
lfoot 27.0167 11.067
ltoes -8.33649
